<svg version="1.1" id="Layer_1" xmlns="http://www.w3.org/2000/svg" xmlns:xlink="http://www.w3.org/1999/xlink" x="0px" y="0px"
	 width="100%" viewBox="0 0 134 138" enable-background="new 0 0 134 138" xml:space="preserve">
<path fill="#010101" opacity="1.000000" stroke="none" 
	d="
M103.215347,138.718719 
	C70.384071,139.000000 37.767986,138.955093 5.152488,139.073105 
	C2.068966,139.084259 0.868322,138.909561 0.883976,135.164154 
	C1.065502,91.732491 1.062648,48.299534 0.887201,4.867811 
	C0.872336,1.188203 1.964880,0.865675 5.121573,0.917518 
	C17.432407,1.119703 29.748528,1.000000 42.531342,1.000000 
	C43.935139,2.163314 43.247135,3.190201 42.693775,4.195960 
	C41.725807,5.955289 40.198196,7.341451 39.182926,9.032375 
	C35.373749,15.376537 30.323013,17.051586 23.160379,14.816986 
	C17.318556,12.994452 17.003130,13.625418 14.517390,19.126038 
	C11.778260,25.187372 8.689425,31.081547 5.747076,37.043446 
	C4.120380,40.339523 4.582854,42.902000 7.475169,44.858944 
	C14.247977,49.441437 20.118273,55.138554 26.595976,60.081406 
	C29.263765,62.117088 32.066181,63.007030 35.448410,62.291252 
	C40.171921,61.291615 45.049126,61.660622 49.825062,60.834034 
	C52.509651,60.369404 54.379364,59.508495 55.715759,56.994164 
	C59.462994,49.944008 62.989674,42.791870 66.474144,35.610390 
	C67.908646,32.653893 67.540741,30.315573 65.818977,27.731052 
	C60.202488,19.300190 55.086216,10.464003 45.951504,5.112938 
	C44.682621,4.369635 43.438824,3.386410 43.784386,1.295254 
	C73.117134,1.000000 102.234322,1.025721 131.351288,0.955104 
	C133.902603,0.948916 135.129379,0.919642 135.115677,4.339972 
	C134.940369,48.098160 134.946686,91.857491 135.107147,135.615784 
	C135.119217,138.908142 134.072952,139.114822 131.394485,139.060226 
	C123.245071,138.894104 115.090111,139.000000 106.468658,139.000000 
	C103.614334,133.608932 104.949791,128.749023 108.198570,124.215889 
	C109.338280,122.625610 111.192749,121.601990 112.262970,118.919128 
	C103.168709,117.837769 94.433678,115.942001 84.590309,115.978424 
	C89.020912,121.206184 93.558449,125.484947 97.706749,130.111115 
	C99.946220,132.608551 103.326515,134.434662 103.215347,138.718719 
z"/>
<path fill="#FBFBFB" opacity="1.000000" stroke="none" 
	d="
M43.750000,1.000000 
	C44.399960,4.164955 47.444561,4.666013 49.429050,5.982989 
	C58.747906,12.167312 62.963867,22.286200 69.198151,30.848442 
	C69.882790,31.788740 69.409149,32.221554 69.037102,32.970146 
	C64.651497,41.794250 60.227989,50.601887 56.036037,59.518032 
	C55.095234,61.519085 53.458328,61.502960 52.002628,61.703415 
	C45.875362,62.547176 39.675976,62.920250 33.584232,63.947456 
	C30.322664,64.497429 28.176577,62.888550 26.075943,61.240406 
	C18.938122,55.640110 12.053475,49.715137 4.871902,44.173664 
	C2.330438,42.212612 2.310613,40.465549 3.616265,37.919235 
	C7.450140,30.442301 11.252055,22.945080 14.849482,15.352978 
	C16.063314,12.791273 17.337437,11.877666 20.190060,12.849054 
	C22.971180,13.796094 26.026842,13.926529 28.825388,14.835839 
	C31.360674,15.659609 32.958393,14.818831 34.418686,12.939763 
	C37.341476,9.178786 40.294445,5.441265 43.117477,1.347030 
	C43.000000,1.000000 43.500000,1.000000 43.750000,1.000000 
z"/>
<path fill="#F2F2F2" opacity="1.000000" stroke="none" 
	d="
M103.375000,139.000000 
	C104.856949,137.292175 102.577278,136.882736 101.966988,136.229370 
	C95.357155,129.152893 88.654228,122.163383 80.919533,114.039795 
	C93.036797,115.426819 103.679359,116.645042 114.321922,117.863258 
	C114.670761,118.168221 115.019600,118.473183 115.368439,118.778145 
	C108.304733,123.605362 105.295174,130.219788 105.740799,138.621552 
	C105.250000,139.000000 104.500000,139.000000 103.375000,139.000000 
z"/>
</svg>